<?xml version="1.0" standalone="no"?>
<!DOCTYPE svg PUBLIC "-//W3C//DTD SVG 20010904//EN"
 "http://www.w3.org/TR/2001/REC-SVG-20010904/DTD/svg10.dtd">
<svg version="1.0" xmlns="http://www.w3.org/2000/svg"
 width="2970.000000pt" height="2970.000000pt" viewBox="0 0 2970.000000 2970.000000"
 preserveAspectRatio="xMidYMid meet">
<metadata>
Created by potrace 1.11, written by Peter Selinger 2001-2013
</metadata>
<g transform="translate(0.000000,2970.000000) scale(0.100000,-0.100000)"
fill="#000000" stroke="none">
<path d="M16715 27763 c-10 -32 -25 -71 -32 -86 -22 -45 -218 -689 -238 -784
-2 -10 -18 -72 -35 -137 -18 -66 -33 -127 -35 -135 -36 -156 -76 -330 -79
-346 -38 -178 -92 -463 -101 -525 -3 -25 -8 -56 -10 -70 -10 -57 -33 -207 -40
-265 -4 -27 -8 -61 -10 -75 -2 -14 -7 -52 -10 -85 -4 -33 -8 -71 -10 -85 -10
-70 -18 -162 -19 -220 -1 -73 -8 -69 94 -57 104 13 235 26 320 32 105 8 650 9
676 2 15 -5 58 -10 164 -19 42 -4 43 -1 36 86 -4 46 -9 94 -11 107 -2 13 -6
56 -9 94 -7 72 -13 127 -20 180 -3 17 -10 68 -16 115 -18 135 -21 153 -25 180
-3 14 -7 43 -11 65 -6 42 -50 301 -59 345 -3 14 -10 50 -16 80 -85 438 -223
967 -352 1345 -55 160 -117 314 -127 315 -3 0 -14 -26 -25 -57z"/>
<path d="M17198 24105 c-2 -2 -109 -6 -238 -9 -129 -4 -262 -9 -296 -10 -186
-11 -453 -35 -564 -51 -14 -2 -50 -7 -80 -10 -30 -3 -82 -10 -115 -15 -33 -5
-80 -12 -105 -15 -24 -4 -47 -8 -50 -10 -3 -2 -30 -6 -60 -10 -30 -4 -57 -8
-60 -10 -3 -2 -26 -6 -50 -10 -25 -3 -52 -8 -60 -10 -8 -2 -28 -7 -45 -10 -69
-12 -243 -50 -322 -70 -35 -9 -73 -18 -85 -20 -60 -12 -395 -109 -407 -119
-26 -20 -38 -64 -31 -114 4 -26 38 -141 75 -257 37 -115 80 -255 97 -310 16
-55 33 -109 38 -120 5 -11 25 -73 45 -138 51 -166 83 -193 193 -164 31 8 111
29 177 47 66 17 127 33 135 35 8 2 38 9 65 15 28 6 57 13 65 15 8 2 54 12 102
24 48 11 98 22 110 25 13 2 82 15 153 30 72 14 144 28 160 31 51 9 158 27 190
31 17 3 55 9 85 14 30 5 75 12 100 15 25 3 63 8 85 11 78 11 91 13 145 19 30
3 69 7 85 9 17 2 64 7 105 11 41 4 86 8 100 10 14 2 72 7 130 11 58 3 121 8
140 9 274 22 881 22 1195 0 185 -12 244 -17 275 -20 19 -2 82 -9 140 -15 185
-19 367 -44 550 -75 47 -8 103 -17 125 -21 98 -14 469 -96 645 -141 938 -241
1794 -616 2565 -1121 144 -94 392 -267 405 -281 3 -3 48 -38 100 -77 53 -39
102 -78 110 -85 8 -8 35 -30 60 -49 43 -34 81 -64 104 -85 6 -5 65 -57 131
-115 155 -135 510 -490 651 -651 540 -616 948 -1270 1262 -2019 57 -138 144
-375 194 -532 35 -111 48 -140 70 -154 15 -10 24 -22 22 -26 -7 -11 23 -10 44
1 9 6 29 12 43 15 32 7 49 45 44 101 -5 59 -151 497 -220 660 -7 17 -36 89
-65 160 -29 72 -66 158 -82 193 -15 34 -28 64 -28 66 0 5 -135 287 -185 386
-78 156 -158 304 -275 505 -88 154 -284 456 -421 650 -135 192 -404 536 -524
669 -5 6 -39 45 -75 86 -36 41 -90 101 -120 134 -76 83 -441 448 -520 521
-141 129 -167 152 -230 205 -36 31 -76 65 -90 77 -145 124 -416 334 -615 474
-112 79 -384 260 -457 304 -9 5 -74 44 -145 86 -70 43 -144 86 -163 98 -19 11
-42 24 -50 28 -8 3 -51 27 -95 51 -144 81 -514 263 -685 337 -36 15 -93 41
-127 56 -34 16 -67 29 -73 29 -5 0 -18 5 -28 10 -20 12 -240 100 -262 105 -8
2 -56 19 -107 39 -284 109 -949 297 -1243 351 -14 3 -72 14 -130 25 -58 11
-118 22 -135 25 -16 2 -41 7 -55 10 -13 2 -42 7 -65 10 -22 3 -65 10 -95 15
-30 5 -71 11 -90 14 -19 2 -71 9 -115 15 -140 18 -189 24 -230 26 -22 2 -62 5
-90 8 -51 6 -179 17 -270 22 -27 2 -156 6 -285 10 -129 3 -250 8 -267 9 -18 2
-34 2 -35 1z"/>
<path d="M5 16665 c-2 -5 -3 -206 -2 -445 l2 -435 560 0 560 0 0 443 c0 436 0
442 -20 443 -222 6 -1098 2 -1100 -6z"/>
<path d="M1749 16630 c0 -18 0 -3597 1 -3622 0 -16 39 -17 535 -17 l535 1 0
1313 c0 783 4 1316 9 1319 9 6 30 -23 73 -104 14 -25 48 -88 78 -140 29 -52
65 -117 80 -145 48 -88 82 -149 100 -180 10 -16 31 -55 48 -85 27 -50 221
-402 262 -475 30 -55 641 -1156 674 -1214 17 -32 60 -109 95 -173 l65 -116
417 -1 418 0 24 42 c13 23 106 188 207 367 100 179 188 334 195 345 7 11 26
45 42 75 17 30 67 120 113 200 45 80 98 174 118 210 19 36 43 77 54 92 10 14
18 29 18 32 0 3 35 68 78 143 43 76 90 158 103 183 13 25 26 47 29 50 3 3 46
77 95 165 88 159 107 193 303 540 56 99 102 173 103 165 0 -8 1 -598 2 -1310
l2 -1295 548 -2 547 -1 -2 1826 -3 1827 -853 0 c-470 0 -857 -2 -861 -5 -7 -4
-58 -94 -146 -259 -17 -31 -60 -110 -97 -176 -36 -66 -81 -149 -100 -185 -20
-36 -75 -137 -123 -225 -48 -88 -103 -189 -123 -225 -19 -36 -48 -90 -65 -120
-38 -68 -87 -158 -125 -230 -16 -30 -66 -122 -111 -203 -44 -82 -81 -150 -81
-153 0 -2 -13 -25 -29 -51 -15 -27 -45 -79 -66 -118 -56 -105 -104 -194 -138
-255 -17 -30 -40 -72 -51 -92 -11 -21 -22 -38 -25 -38 -3 0 -41 67 -83 148
-72 136 -108 204 -223 417 -23 44 -71 134 -105 200 -35 66 -66 125 -70 130 -4
6 -35 64 -70 130 -34 66 -70 134 -80 150 -9 17 -43 80 -75 140 -32 61 -72 137
-90 170 -18 33 -53 98 -78 145 -24 47 -64 121 -87 165 -24 44 -63 118 -88 165
-24 47 -59 112 -77 145 -18 33 -52 96 -75 140 -23 44 -44 82 -47 85 -2 3 -391
5 -864 5 -758 0 -859 -2 -860 -15z"/>
<path d="M8267 16635 c-3 -9 -1 -3621 2 -3637 0 -4 246 -7 546 -7 504 0 545 2
546 17 0 9 1 601 1 1315 l1 1297 129 -226 c70 -124 128 -228 128 -231 0 -3 8
-17 18 -31 11 -15 32 -52 49 -82 30 -56 254 -452 456 -810 61 -107 124 -220
140 -250 16 -30 36 -62 43 -71 8 -8 14 -23 14 -31 0 -9 4 -18 8 -20 4 -1 53
-84 108 -183 56 -99 110 -196 121 -215 58 -101 90 -157 96 -170 4 -8 17 -31
28 -50 12 -19 37 -64 57 -100 19 -36 42 -76 51 -90 9 -14 21 -34 27 -45 11
-19 22 -20 430 -20 l418 0 54 95 c30 52 70 125 90 162 51 91 237 428 261 472
11 19 37 66 57 103 20 37 54 97 74 133 21 36 52 92 70 125 46 84 67 122 147
265 38 69 86 154 105 190 20 36 71 128 113 205 74 134 99 178 142 255 23 41
119 213 158 285 15 28 49 88 75 135 26 47 60 109 75 138 15 29 30 51 32 48 3
-3 5 -592 4 -1310 l-2 -1305 548 2 548 2 0 1825 0 1825 -861 0 c-851 0 -861 0
-870 -20 -11 -22 -122 -232 -164 -310 -15 -27 -49 -90 -75 -140 -26 -49 -60
-112 -75 -140 -15 -27 -51 -95 -80 -150 -29 -55 -65 -122 -80 -150 -15 -27
-50 -93 -78 -145 -27 -52 -61 -115 -74 -140 -14 -25 -55 -103 -93 -175 -37
-71 -71 -134 -75 -140 -4 -5 -40 -73 -80 -150 -40 -77 -76 -144 -80 -150 -4
-5 -38 -68 -75 -140 -38 -71 -89 -168 -114 -215 -25 -47 -57 -106 -71 -132
-13 -26 -25 -46 -26 -45 -1 1 -18 32 -38 70 -63 116 -108 201 -129 237 -11 19
-40 73 -65 120 -25 47 -63 116 -84 153 -21 38 -38 70 -38 72 0 2 -15 30 -34
62 -18 32 -55 99 -81 148 -26 50 -69 128 -95 175 -26 47 -66 121 -90 165 -24
44 -51 94 -61 111 -9 18 -41 76 -70 130 -29 55 -61 113 -71 129 -10 17 -21 37
-25 45 -3 8 -30 58 -58 110 -29 52 -69 126 -89 163 -20 37 -45 82 -55 100 -9
18 -57 104 -105 192 l-87 160 -859 0 c-565 0 -861 -3 -863 -10z"/>
<path d="M16418 16628 c-10 -10 -18 -22 -18 -27 0 -5 -16 -38 -36 -73 -20 -34
-57 -101 -82 -148 -26 -47 -59 -107 -74 -135 -15 -27 -31 -57 -35 -65 -4 -8
-39 -73 -78 -145 -69 -126 -105 -192 -185 -340 -41 -76 -82 -151 -125 -230
-53 -97 -113 -207 -200 -370 -18 -33 -74 -136 -125 -230 -51 -93 -108 -199
-128 -235 -19 -36 -47 -87 -62 -115 -36 -65 -77 -141 -130 -240 -23 -44 -50
-93 -60 -110 -16 -28 -33 -59 -120 -220 -235 -436 -282 -522 -290 -535 -5 -8
-18 -31 -28 -50 -20 -38 -80 -148 -149 -274 -23 -43 -43 -82 -43 -86 0 -10
1232 -12 1245 -2 10 7 18 22 127 232 173 333 212 405 219 410 4 3 514 5 1134
5 l1127 0 37 -70 c21 -39 82 -155 136 -260 54 -104 114 -220 133 -256 l35 -67
623 0 c343 -1 624 2 624 5 0 7 -72 141 -198 370 -54 98 -116 210 -137 248 -21
39 -57 104 -80 145 -23 41 -60 109 -82 150 -46 86 -78 143 -139 252 -24 43
-44 80 -44 83 0 3 -10 22 -23 43 -13 20 -48 82 -77 137 -29 55 -56 105 -60
110 -4 6 -27 46 -50 90 -24 44 -52 95 -63 115 -11 19 -33 60 -50 90 -16 30
-38 69 -47 85 -10 17 -39 71 -65 120 -26 50 -54 97 -61 106 -8 8 -14 21 -14
28 0 7 -8 25 -18 39 -17 24 -54 92 -187 337 -21 39 -67 120 -102 182 -34 62
-63 115 -63 117 0 3 -13 27 -28 53 -16 27 -73 129 -127 228 -54 99 -108 196
-118 215 -20 34 -51 91 -130 235 l-39 70 -726 0 c-679 0 -728 -1 -744 -17z
m785 -908 c19 -36 56 -105 82 -155 26 -49 74 -142 107 -205 33 -63 73 -137 88
-165 15 -27 55 -102 88 -165 96 -185 208 -398 278 -527 19 -34 34 -65 34 -68
0 -3 -319 -5 -710 -5 -390 0 -710 2 -710 4 0 2 36 75 81 162 195 383 356 697
480 942 73 144 136 259 140 255 5 -5 23 -37 42 -73z"/>
<path d="M20079 16640 c-1 -3 -2 -825 -3 -1827 l-1 -1822 575 2 575 2 1 450
c1 248 2 452 3 455 0 3 524 5 1164 5 1248 1 1241 1 1402 53 330 107 547 374
630 777 27 130 30 193 29 545 -1 362 -9 452 -59 624 -103 355 -345 581 -726
680 -52 13 -115 27 -140 31 -24 3 -55 8 -69 10 -14 2 -54 7 -90 11 -73 8
-3289 12 -3291 4z m2936 -923 c67 -17 165 -71 200 -109 46 -51 59 -79 80 -158
22 -85 17 -319 -9 -395 -25 -72 -72 -137 -125 -173 -95 -63 -62 -62 -1057 -62
l-904 0 0 455 0 456 893 -4 c490 -1 906 -6 922 -10z"/>
<path d="M26755 15453 c3 -26 8 -58 10 -70 2 -12 7 -57 10 -100 4 -43 9 -86
11 -95 1 -10 5 -77 9 -150 3 -73 9 -158 13 -188 8 -71 8 -269 -1 -340 -4 -30
-10 -73 -12 -96 -7 -54 -14 -91 -26 -139 -23 -94 -27 -86 38 -80 32 3 74 8 93
10 19 2 64 7 100 10 36 3 76 8 90 10 14 2 54 7 90 10 36 4 72 9 81 10 9 2 40
6 70 10 30 3 79 10 109 15 30 5 73 12 95 15 34 5 113 17 260 42 246 40 779
162 1080 246 273 76 592 179 643 206 12 6 22 9 22 5 0 -3 6 -2 13 3 10 8 67
30 127 50 20 6 1 16 -103 54 -452 166 -1331 394 -1862 483 -77 13 -285 46
-325 51 -25 3 -52 8 -60 10 -8 2 -44 7 -80 10 -36 4 -73 9 -82 10 -9 2 -45 6
-80 10 -35 3 -74 8 -88 10 -14 2 -59 6 -100 10 -41 3 -92 8 -113 11 l-37 5 5
-48z"/>
<path d="M5 15390 c-1 -3 -2 -543 -1 -1200 l1 -1195 560 0 560 0 0 1198 c0
658 -2 1198 -5 1198 -17 4 -1112 3 -1115 -1z"/>
<path d="M8381 12212 c-30 -27 -34 -36 -34 -79 1 -97 216 -686 411 -1123 85
-193 303 -613 429 -831 256 -441 606 -935 933 -1313 47 -55 101 -118 120 -140
93 -109 541 -564 665 -675 358 -323 722 -606 1100 -858 116 -77 226 -149 245
-161 19 -11 73 -44 120 -72 47 -28 92 -55 100 -60 28 -18 121 -70 238 -134
551 -301 1145 -549 1748 -731 183 -56 527 -147 604 -161 14 -3 41 -9 60 -14
19 -5 71 -16 115 -25 44 -9 89 -19 100 -21 32 -7 187 -35 220 -40 17 -2 68
-11 115 -19 104 -18 320 -46 445 -59 28 -3 93 -10 145 -16 52 -5 131 -12 175
-14 44 -3 130 -9 190 -13 219 -15 860 -8 1055 11 19 2 76 7 125 11 127 11 144
12 200 19 28 4 70 9 95 12 25 3 56 7 70 9 14 2 48 6 75 10 99 13 121 16 180
26 33 6 72 13 87 14 15 2 53 9 85 14 32 6 72 13 88 15 17 2 86 16 155 30 69
15 134 28 145 31 11 2 63 13 115 25 52 12 104 23 115 25 16 4 179 44 275 69
122 31 134 36 161 68 54 62 63 14 -116 583 -29 94 -72 231 -95 305 -35 114
-47 140 -77 168 -44 43 -57 42 -296 -22 -99 -26 -186 -49 -195 -51 -10 -2 -76
-17 -148 -34 -71 -16 -177 -39 -235 -51 -57 -11 -115 -23 -129 -25 -14 -3 -38
-8 -55 -10 -16 -3 -56 -10 -87 -16 -32 -5 -70 -12 -85 -15 -50 -8 -88 -14
-108 -18 -11 -2 -42 -7 -70 -10 -82 -11 -119 -17 -145 -21 -14 -2 -52 -7 -85
-11 -33 -3 -67 -8 -76 -9 -9 -2 -52 -6 -95 -10 -43 -4 -86 -9 -95 -10 -9 -2
-59 -6 -110 -10 -52 -4 -115 -8 -140 -10 -63 -6 -232 -15 -354 -20 -223 -10
-772 -4 -920 10 -22 2 -85 6 -140 10 -55 3 -113 8 -130 10 -16 2 -64 7 -106
10 -42 3 -85 7 -95 9 -11 2 -48 7 -84 10 -36 4 -76 9 -90 11 -14 2 -45 7 -70
10 -59 8 -229 34 -255 39 -22 4 -114 19 -130 21 -18 3 -214 41 -255 50 -8 2
-58 13 -110 24 -378 80 -988 263 -1275 381 -16 7 -39 16 -50 21 -502 203 -792
343 -1185 572 -328 191 -598 375 -951 649 -60 47 -308 255 -324 272 -6 6 -35
33 -65 60 -76 67 -308 295 -405 397 -713 748 -1294 1720 -1605 2685 -56 172
-57 175 -83 208 -17 21 -33 29 -67 33 -39 4 -50 0 -79 -25z"/>
<path d="M16095 4724 c4 -49 9 -102 10 -119 3 -31 13 -128 20 -180 2 -16 6
-50 9 -75 12 -97 17 -136 21 -160 2 -14 7 -43 9 -65 5 -39 32 -213 41 -265 3
-14 7 -38 10 -55 3 -16 10 -55 15 -85 44 -248 87 -442 175 -800 2 -8 13 -51
25 -95 12 -44 28 -102 35 -130 70 -263 258 -825 275 -825 7 0 113 286 162 435
38 116 135 446 143 482 2 10 17 74 35 143 18 69 33 132 35 140 45 192 93 412
101 460 3 19 9 53 14 75 5 22 14 69 19 105 6 36 13 76 16 90 2 14 7 36 10 50
2 14 7 43 10 65 3 23 8 52 10 65 3 14 8 43 10 65 3 22 8 56 10 75 3 19 7 45 9
57 3 12 7 49 11 82 3 33 7 68 9 78 2 10 7 47 10 83 4 36 9 83 13 105 6 45 8
63 18 194 l7 94 -33 -6 c-77 -14 -282 -35 -407 -43 -197 -11 -475 -6 -502 11
-3 2 -48 7 -100 10 -52 4 -97 9 -100 10 -3 2 -40 6 -84 10 l-78 7 7 -88z"/>
</g>
</svg>
