<svg height="830.91864" viewBox="0 0 950.21727 830.91863" width="950.21729" xmlns="http://www.w3.org/2000/svg" xmlns:xlink="http://www.w3.org/1999/xlink"><clipPath id="a"><path d="m237.069 109.351h712.663v623.189h-712.663z"/></clipPath><clipPath id="b"><path d="m237.069 109.351h712.663v623.189h-712.663z"/></clipPath><g fill="#fff" transform="matrix(1.3333333 0 0 -1.3333333 -316.09199 976.71998)"><g clip-path="url(#a)"><path d="m0 0c-2.504 0-5.006.628-7.51.628 2.504-30.659 10.014-55.062 13.767-65.699 1.252-3.129 1.877-5.005 1.877-5.005s.625 1.876 1.877 5.005c3.753 10.01 11.262 35.04 13.763 65.699-5.003-.628-10.01-1.252-15.64-1.252-2.504 0-5.63 0-8.134.624" transform="translate(630.6299 179.4269)"/><path d="m0 0v.625c0 1.252.625 1.877 1.876 2.504h.628c1.249 0 1.876-.627 2.501-1.877 24.402-80.09 102.613-130.146 190.838-130.146 21.897 0 44.423 3.128 66.323 9.386h.625c1.252 0 1.876-.625 2.504-1.877l6.882-21.897v-.628c0-.624 0-.624-.627-1.252-.625-.624-.625-1.249-1.252-1.249-20.647-5.633-41.295-8.762-61.317-8.762-93.854.628-180.198 61.319-208.981 155.173" transform="translate(437.291 355.2472)"/><path d="m0 0h41.922c6.254 0 8.759 4.38 8.759 9.386v3.129c0 5.63-3.129 9.383-11.263 9.383h-39.418zm-26.906 43.798h73.206c25.653 0 31.911-13.139 31.911-30.031v-7.51c0-13.139-5.63-28.155-24.402-28.155h-53.185v-21.9h-27.53z" transform="translate(745.7578 420.319)"/></g><path d="m0 0h34.413l-17.517 33.161zm-.625 53.185h35.038l48.179-87.597h-30.034l-8.135 15.641h-54.434l-8.134-15.641h-30.031z" transform="translate(631.8809 410.9337)"/><path d="m0 0h41.297l30.657-56.313 30.034 56.313h41.295v-87.597h-26.279v63.195l-35.037-63.195h-20.024l-35.665 63.195v-63.195h-26.278z" transform="translate(435.4136 464.1173)"/><path d="m0 0h41.297l30.032-56.313 30.659 56.313h41.295v-87.597h-26.279v63.195l-35.664-63.195h-20.021l-35.04 63.195h-.625v-63.195h-25.654z" transform="translate(278.9902 464.1173)"/><path d="m237.069 443.47h26.906v21.273h-26.906zm0-66.948h26.906v57.563h-26.906z"/><g clip-path="url(#b)"><path d="m0 0c0-2.504-.628-5.005-1.252-7.509 30.659 2.504 55.061 10.013 65.699 13.767 3.126 1.252 5.005 1.876 5.005 1.876s-1.879.625-5.005 1.877c-10.013 3.129-35.04 11.262-65.699 13.766.624-5.007 1.252-10.013 1.252-15.643.624-2.504.624-5.005 0-8.134" transform="translate(880.2812 412.8107)"/><path d="m0 0c-.625.625-1.252.625-1.252 1.252-24.402 80.088-102.613 130.144-190.835 130.144-21.9 0-44.426-3.129-66.323-9.386h-.628c-1.249 0-1.877.627-2.501 1.876l-6.885 21.901v.625 1.252c.628.627.628 1.252 1.252 1.252 20.649 6.257 40.673 8.758 61.318 8.758 93.23 0 180.2-60.691 208.983-154.545v-.625-1.252c0-.627-.625-1.252-1.253-1.252h-.624c-.628-.625-1.252-.625-1.252 0" transform="translate(856.5049 485.3907)"/><path d="m0 0c2.504 0 5.006-.625 7.51-.625-2.504 30.66-10.014 55.059-13.767 65.697-1.252 2.504-1.877 4.381-1.877 4.381s-.625-1.877-1.877-5.006c-3.128-10.013-11.262-35.04-13.766-65.699 5.006.627 10.013 1.252 15.643 1.252z" transform="translate(646.8975 663.0875)"/></g></g></svg>