<?xml version="1.0" encoding="UTF-8" standalone="no"?>
<svg
   xmlns:dc="http://purl.org/dc/elements/1.1/"
   xmlns:cc="http://creativecommons.org/ns#"
   xmlns:rdf="http://www.w3.org/1999/02/22-rdf-syntax-ns#"
   xmlns:svg="http://www.w3.org/2000/svg"
   xmlns="http://www.w3.org/2000/svg"
   xmlns:sodipodi="http://sodipodi.sourceforge.net/DTD/sodipodi-0.dtd"
   xmlns:inkscape="http://www.inkscape.org/namespaces/inkscape"
   inkscape:version="1.0 (4035a4f, 2020-05-01)"
   sodipodi:docname="kobologo.svg"
   version="1.1"
   id="svg10"
   xml:space="preserve"
   width="950.21729"
   height="830.91864"
   viewBox="0 0 950.21727 830.91863"><sodipodi:namedview
     inkscape:current-layer="svg10"
     inkscape:window-maximized="0"
     inkscape:window-y="23"
     inkscape:window-x="0"
     inkscape:cy="415.45999"
     inkscape:cx="477.60802"
     inkscape:zoom="0.4434925"
     showgrid="false"
     id="namedview41"
     inkscape:window-height="822"
     inkscape:window-width="1551"
     inkscape:pageshadow="2"
     inkscape:pageopacity="0"
     guidetolerance="10"
     gridtolerance="10"
     objecttolerance="10"
     borderopacity="1"
     bordercolor="#666666"
     pagecolor="#ffffff" /><metadata
     id="metadata16"><rdf:RDF><cc:Work
         rdf:about=""><dc:format>image/svg+xml</dc:format><dc:type
           rdf:resource="http://purl.org/dc/dcmitype/StillImage" /><dc:title /></cc:Work></rdf:RDF></metadata><defs
     id="defs14"><clipPath
       clipPathUnits="userSpaceOnUse"
       id="clipPath26"><path
         d="M 237.069,109.351 H 949.732 V 732.54 H 237.069 Z"
         id="path24" /></clipPath><clipPath
       clipPathUnits="userSpaceOnUse"
       id="clipPath60"><path
         d="M 237.069,109.351 H 949.732 V 732.54 H 237.069 Z"
         id="path58" /></clipPath></defs><g
     id="g18"
     transform="matrix(1.3333333,0,0,-1.3333333,-316.09199,976.71998)"><g
       id="g20"><g
         id="g22"
         clip-path="url(#clipPath26)"><g
           id="g28"
           transform="translate(630.6299,179.4269)"><path
             d="m 0,0 c -2.504,0 -5.006,0.628 -7.51,0.628 2.504,-30.659 10.014,-55.062 13.767,-65.699 1.252,-3.129 1.877,-5.005 1.877,-5.005 0,0 0.625,1.876 1.877,5.005 3.753,10.01 11.262,35.04 13.763,65.699 C 18.771,0 13.764,-0.624 8.134,-0.624 5.63,-0.624 2.504,-0.624 0,0"
             style="fill:#ffffff;fill-opacity:1;fill-rule:nonzero;stroke:none"
             id="path30" /></g><g
           id="g32"
           transform="translate(437.291,355.2472)"><path
             d="m 0,0 v 0.625 c 0,1.252 0.625,1.877 1.876,2.504 h 0.628 c 1.249,0 1.876,-0.627 2.501,-1.877 24.402,-80.09 102.613,-130.146 190.838,-130.146 21.897,0 44.423,3.128 66.323,9.386 h 0.625 c 1.252,0 1.876,-0.625 2.504,-1.877 l 6.882,-21.897 v -0.628 c 0,-0.624 0,-0.624 -0.627,-1.252 -0.625,-0.624 -0.625,-1.249 -1.252,-1.249 -20.647,-5.633 -41.295,-8.762 -61.317,-8.762 C 115.127,-154.545 28.783,-93.854 0,0"
             style="fill:#ffffff;fill-opacity:1;fill-rule:nonzero;stroke:none"
             id="path34" /></g><g
           id="g36"
           transform="translate(745.7578,420.319)"><path
             d="m 0,0 h 41.922 c 6.254,0 8.759,4.38 8.759,9.386 v 3.129 c 0,5.63 -3.129,9.383 -11.263,9.383 L 0,21.898 Z M -26.906,43.798 H 46.3 c 25.653,0 31.911,-13.139 31.911,-30.031 v -7.51 c 0,-13.139 -5.63,-28.155 -24.402,-28.155 H 0.624 v -21.9 h -27.53 z"
             style="fill:#ffffff;fill-opacity:1;fill-rule:nonzero;stroke:none"
             id="path38" /></g></g></g><g
       id="g40"
       transform="translate(631.8809,410.9337)"><path
         d="M 0,0 H 34.413 L 16.896,33.161 Z M -0.625,53.185 H 34.413 L 82.592,-34.412 H 52.558 l -8.135,15.641 h -54.434 l -8.134,-15.641 h -30.031 z"
         style="fill:#ffffff;fill-opacity:1;fill-rule:nonzero;stroke:none"
         id="path42" /></g><g
       id="g44"
       transform="translate(435.4136,464.1173)"><path
         d="M 0,0 H 41.297 L 71.954,-56.313 101.988,0 h 41.295 v -87.597 h -26.279 v 63.195 L 81.967,-87.597 H 61.943 L 26.278,-24.402 V -87.597 H 0 Z"
         style="fill:#ffffff;fill-opacity:1;fill-rule:nonzero;stroke:none"
         id="path46" /></g><g
       id="g48"
       transform="translate(278.9902,464.1173)"><path
         d="M 0,0 H 41.297 L 71.329,-56.313 101.988,0 h 41.295 v -87.597 h -26.279 v 63.195 L 81.34,-87.597 H 61.319 l -35.04,63.195 H 25.654 V -87.597 H 0 Z"
         style="fill:#ffffff;fill-opacity:1;fill-rule:nonzero;stroke:none"
         id="path50" /></g><path
       d="m 237.069,443.47 h 26.906 v 21.273 h -26.906 z m 0,-66.948 h 26.906 v 57.563 h -26.906 z"
       style="fill:#ffffff;fill-opacity:1;fill-rule:nonzero;stroke:none"
       id="path52" /><g
       id="g54"><g
         id="g56"
         clip-path="url(#clipPath60)"><g
           id="g62"
           transform="translate(880.2812,412.8107)"><path
             d="m 0,0 c 0,-2.504 -0.628,-5.005 -1.252,-7.509 30.659,2.504 55.061,10.013 65.699,13.767 3.126,1.252 5.005,1.876 5.005,1.876 0,0 -1.879,0.625 -5.005,1.877 C 54.434,13.14 29.407,21.273 -1.252,23.777 -0.628,18.77 0,13.764 0,8.134 0.624,5.63 0.624,3.129 0,0"
             style="fill:#ffffff;fill-opacity:1;fill-rule:nonzero;stroke:none"
             id="path64" /></g><g
           id="g66"
           transform="translate(856.5049,485.3907)"><path
             d="m 0,0 c -0.625,0.625 -1.252,0.625 -1.252,1.252 -24.402,80.088 -102.613,130.144 -190.835,130.144 -21.9,0 -44.426,-3.129 -66.323,-9.386 h -0.628 c -1.249,0 -1.877,0.627 -2.501,1.876 l -6.885,21.901 v 0.625 1.252 c 0.628,0.627 0.628,1.252 1.252,1.252 20.649,6.257 40.673,8.758 61.318,8.758 93.23,0 180.2,-60.691 208.983,-154.545 V 2.504 1.252 C 3.129,0.625 2.504,0 1.876,0 H 1.252 C 0.624,-0.625 0,-0.625 0,0"
             style="fill:#ffffff;fill-opacity:1;fill-rule:nonzero;stroke:none"
             id="path68" /></g><g
           id="g70"
           transform="translate(646.8975,663.0875)"><path
             d="m 0,0 c 2.504,0 5.006,-0.625 7.51,-0.625 -2.504,30.66 -10.014,55.059 -13.767,65.697 -1.252,2.504 -1.877,4.381 -1.877,4.381 0,0 -0.625,-1.877 -1.877,-5.006 C -13.139,54.434 -21.273,29.407 -23.777,-1.252 -18.771,-0.625 -13.764,0 -8.134,0 Z"
             style="fill:#ffffff;fill-opacity:1;fill-rule:nonzero;stroke:none"
             id="path72" /></g></g></g></g></svg>
